<?xml version="1.0" encoding="utf-8"?>
<!-- Generator: Adobe Illustrator 24.0.3, SVG Export Plug-In . SVG Version: 6.00 Build 0)  -->
<svg version="1.1" id="svg2" xmlns:svg="http://www.w3.org/2000/svg"
	 xmlns="http://www.w3.org/2000/svg" xmlns:xlink="http://www.w3.org/1999/xlink" x="0px" y="0px" viewBox="0 0 39.7 39.7"
	 style="enable-background:new 0 0 39.7 39.7;" xml:space="preserve">
<style type="text/css">
	.st0{fill:#FFFFFF;}
	.st1{fill:none;stroke:#FFFFFF;stroke-width:0.5;stroke-linecap:round;stroke-linejoin:round;}
</style>
<g id="g13">
	<path id="path15" d="M39.7,19.8c0,11-8.9,19.8-19.8,19.8C8.9,39.7,0,30.8,0,19.8C0,8.9,8.9,0,19.8,0C30.8,0,39.7,8.9,39.7,19.8z"/>
	<path id="path17" class="st0" d="M26.7,19.8c0,3.8-3.1,6.9-6.9,6.9c-3.8,0-6.9-3.1-6.9-6.9c0-3.8,3.1-6.9,6.9-6.9
		C23.6,13,26.7,16.1,26.7,19.8z"/>
	<path id="path119" d="M20.6,19.8c0,0.4-0.3,0.7-0.7,0.7c-0.4,0-0.7-0.3-0.7-0.7c0-0.4,0.3-0.7,0.7-0.7
		C20.2,19.1,20.6,19.5,20.6,19.8z"/>
	<path id="path23" class="st1" d="M3.5,11.6c1.9-3.8,5.1-6.8,9-8.5"/>
	<path id="path27" class="st1" d="M36.6,27.2c-1.8,4.2-5.2,7.5-9.4,9.4"/>
	<path id="path31" class="st1" d="M4.7,11.5c1.7-3.1,4.4-5.6,7.6-7.2"/>
	<path id="path35" class="st1" d="M35.4,27.4c-1.7,3.5-4.5,6.3-8,8"/>
	<path id="path41" class="st1" d="M5.5,12c1.7-3,4.3-5.5,7.4-7"/>
	<path id="path45" class="st1" d="M34.7,26.7c-1.6,3.5-4.4,6.3-7.9,7.9"/>
	<path id="path49" class="st1" d="M34.2,25.5c-1.3,3.4-3.8,6.2-7,7.9"/>
	<path id="path53" class="st1" d="M6.1,12.7c1.5-2.8,3.8-5.1,6.6-6.6"/>
	<path id="path57" class="st1" d="M33.2,25.7c-1.3,3.1-3.7,5.6-6.7,7.2"/>
	<path id="path61" class="st1" d="M7.1,12.8c1.5-2.6,3.7-4.8,6.5-6.1"/>
	<path id="path65" class="st1" d="M7.5,14c1.2-2.5,3.1-4.6,5.5-6"/>
	<path id="path69" class="st1" d="M31,25.7c-1.1,2.1-2.7,3.8-4.8,5"/>
	<path id="path73" class="st1" d="M8.9,13.6c1.2-2.1,3-3.8,5.1-4.9"/>
	<path id="path77" class="st1" d="M29.7,25.9c-1.1,1.8-2.7,3.3-4.5,4.2"/>
	<path id="path81" class="st1" d="M10.1,13.6c1.1-1.8,2.8-3.3,4.7-4.2"/>
	<path id="path85" class="st1" d="M29.2,24.8c-0.9,1.6-2.2,3-3.7,4"/>
	<path id="path89" class="st1" d="M10.9,14.2c1-1.5,2.3-2.8,3.9-3.6"/>
	<path id="path93" class="st1" d="M28.6,24c-0.8,1.7-2.1,3.2-3.8,4.2"/>
	<path id="path97" class="st1" d="M11.3,15.2c0.9-1.7,2.3-3,3.9-3.9"/>
	<path id="path101" class="st1" d="M27.6,23.8c-0.8,1.5-1.9,2.7-3.4,3.5"/>
	<path id="path105" class="st1" d="M12.3,15.5c0.9-1.6,2.3-2.8,4-3.6"/>
	<path id="path109" class="st1" d="M27.1,22.8c-0.7,1.8-2.1,3.2-3.7,4"/>
	<path id="path113" class="st1" d="M12.9,16.2c0.7-1.4,1.9-2.6,3.4-3.4"/>
	<path id="path117" class="st1" d="M32.6,24.7c-1.1,2.8-3,5.1-5.5,6.7"/>
</g>
</svg>
